<svg xmlns="http://www.w3.org/2000/svg" viewBox="0 0 595.37 400.1"><defs><style>.cls-1{fill:#b7b7b7;}.cls-1,.cls-2{stroke:#000;stroke-miterlimit:10;stroke-width:2px;}.cls-2{fill:none;}</style></defs><g id="圖層_2" data-name="圖層 2"><g id="圖層_1-2" data-name="圖層 1"><rect class="cls-1" x="124" y="1" width="389.37" height="164.1"/><line class="cls-2" x1="124" y1="33.06" x2="513.37" y2="33.06"/><path d="M489.3,26.07a1.78,1.78,0,0,1,1.8-1.8,1.8,1.8,0,0,1,0,3.6A1.76,1.76,0,0,1,489.3,26.07Zm.69-9.6c-.28-2-.56-4.17-.56-4.78,0-1.37.63-2.15,1.7-2.15s1.64.71,1.64,2.07c0,.69-.25,2.86-.56,4.91-.37,2.59-1,6.51-1,6.51h-.33S490.34,19.11,490,16.47Z"/><path d="M175.82,75.13c-.24-7.53-1.25-10.08-8.77-10.71l.16-.46c3.25.08,7.83.23,12.17.23,5.12,0,7.84-.08,11.64-.23l-.08.46c-5.51.39-7.45,3.42-7.52,8.85-.24,12.25.15,25.59.38,33.5,5.59-8,12-17.14,18.31-26.52-.47-13.34-.31-15.2-5.51-15.83l.08-.46c2.95.15,4.89.23,9.15.23,5.12,0,6.83-.08,11.09-.23l-.08.46c-6.2.39-7.44,3.11-7.44,7.84,0,12,.39,27.14.85,35.13,5.59-7.6,14.82-20.63,22.73-32.73,4.26-6.59,2.56-9.85-4.81-10.24l.08-.46c4.34.15,5.74.23,10.16.23s6.9-.08,10.54-.23l-.07.46c-4.73.63-7.76,2.41-12.57,8.77-11.4,15.36-24.74,34.05-32.42,45.14l-1,.39c.31-9.08-.31-24.75-.62-36.46-7.44,10.47-17.6,24.9-25,36.07l-.93.39C176.59,108.32,176.28,89.86,175.82,75.13Z"/><path d="M256.47,89.86c-.07,2.25-1.24,4.11-5,6a50.87,50.87,0,0,1-15.2,4.74,28.92,28.92,0,0,0-1.47,7.52c-.08,3.88,1.08,6.44,4.57,6.44,5.35,0,8.92-4.66,10.63-10.71l.54-.08c-1.4,9.55-6.13,15.05-14.19,15.05-5.36,0-8.69-2.25-8.77-7.68a32.26,32.26,0,0,1,1.86-10c-.93-.08-2.25-.16-3-.31l.23-.47A14.54,14.54,0,0,0,230,100a32.59,32.59,0,0,1,8.45-12.48c3.65-3.1,8.22-5.28,11.87-5.28C253.45,82.26,256.47,86.68,256.47,89.86Zm-6.05.86c-.07-3.26-1.47-6.83-3.41-6.83-3.88,0-8.3,8.61-10.39,15.59a31.38,31.38,0,0,0,8.92-3.1C248.72,94.67,250.42,92.73,250.42,90.72Z"/><path d="M258.57,110c3.56-9.77,11.86-34.13,14.35-44.75-2.41-.23-5.51,1.08-7.06,1.94l-.24-.39c1.25-1.4,5.51-5.82,11.79-5.82,1.56,0,4.42.08,2.87,4.42-5.81,16.45-14.81,42.2-15.82,48.56,7.91.07,8.92-6.52,9.08-10.79l.46-.15c1,8.22-2.71,15.67-12.1,15.67C256.55,118.72,256.4,116,258.57,110Z"/><path d="M288.12,118.79c-5.59,0-9.08-2.48-9.23-7.83s3.1-17.22,10.47-23.58c3.72-3.18,8.14-5.12,11.79-5s6.74,2.41,6.2,7.06A5.31,5.31,0,0,1,302,94l-.39-.31c.54-4-.31-9.77-3.26-9.85-3.87-.15-7.29,6.44-10.23,14.2a34.1,34.1,0,0,0-2.25,10.86c0,4.18,2.09,5.74,5,5.74,5.12,0,8.92-4.58,10.86-10.79l.46-.07C300.76,113.21,295.79,118.79,288.12,118.79Z"/><path d="M335.19,103c-2.94,8.69-10.24,16-17.91,15.9-7.45-.15-10.47-6.28-10.47-12.56a26.51,26.51,0,0,1,1.86-9.47c3.18-8.37,9.85-14.5,18-14.5,7.52,0,10,5.9,10,12.18A26.22,26.22,0,0,1,335.19,103Zm-7.06-1.39a46.17,46.17,0,0,0,2.64-13.19c0-2.71-.62-5.27-3.57-5.27C321.7,83,318,92,316,97.62A46.33,46.33,0,0,0,313,112c0,3,.7,5.66,3.72,6.13C322.32,119,326.43,107.08,328.13,101.58Z"/><path d="M367.46,109.87l.31.24c5.58-10.63,16.83-27.69,23.11-27.69,2.17,0,4.65,2.87,4.81,4.57.08,2.49-5,13.81-6.75,19a53.69,53.69,0,0,0-2.25,8c7.68.15,8.92-6.67,8.84-10.86l.55-.08c.85,8.3-2.56,15.67-12.26,15.59-4.88,0-5.66-1.78-2.95-8.69,2.56-6.59,5.36-12.87,7.68-20.4.55-1.62,0-1.86-.46-2.09-1.17,0-2.95,1.47-4,2.48-6.44,6-14.19,16.68-19.62,28.93l-1.86-.31c-1.09-.23-3.11-2.48-1.17-8.22,2.1-6,5.36-13.65,7.6-20.79.47-1.62-.07-1.78-.54-2.09-1.16,0-3,1.47-4,2.48-6.44,6-14.43,17.3-19.55,29l-1.86-.31C342,118.25,340,116,342,110.26c3.25-9.3,6.82-19.23,7.6-23.27-5.35-.07-8.3,6.13-8.3,10.94l-.62.23c-.31-9.46,3.95-15.74,12.1-15.74a23.06,23.06,0,0,1,5.27.77l-10,26.68.31.24c5.58-10.63,16.9-27.69,22.88-27.69,2.25,0,4.73,2.79,4.81,4.5C376.22,89.55,369.32,104.52,367.46,109.87Z"/><path d="M430.74,89.86c-.08,2.25-1.24,4.11-5,6a51,51,0,0,1-15.2,4.74,29,29,0,0,0-1.48,7.52c-.08,3.88,1.09,6.44,4.58,6.44,5.35,0,8.92-4.66,10.62-10.71l.55-.08c-1.4,9.55-6.13,15.05-14.2,15.05-5.35,0-8.68-2.25-8.76-7.68a32,32,0,0,1,1.86-10c-.93-.08-2.25-.16-3-.31l.23-.47a14.54,14.54,0,0,0,3.26-.39,32.48,32.48,0,0,1,8.45-12.48c3.65-3.1,8.22-5.28,11.87-5.28C427.72,82.26,430.74,86.68,430.74,89.86Zm-6.05.86c-.08-3.26-1.47-6.83-3.41-6.83-3.88,0-8.3,8.61-10.39,15.59a31.38,31.38,0,0,0,8.92-3.1C423,94.67,424.69,92.73,424.69,90.72Z"/><path d="M431.83,114.14a4.6,4.6,0,0,1,4.65-4.58,4.62,4.62,0,0,1,0,9.23A4.56,4.56,0,0,1,431.83,114.14Zm10.7-29.94c1.24-6.13,2.87-13.57,3.41-15.43C447.26,64.66,449,63,452,63s3.8,2.56,2.56,6.13c-.7,2.25-3.64,8.84-6.51,15.2-3.34,7.21-8.85,20-9.16,20.71h-.69C438.42,104.06,441.13,91.49,442.53,84.2Z"/><path d="M455.09,114.14a4.61,4.61,0,0,1,4.66-4.58,4.62,4.62,0,0,1,0,9.23A4.57,4.57,0,0,1,455.09,114.14ZM465.8,84.2c1.24-6.13,2.87-13.57,3.41-15.43,1.32-4.11,3-5.74,6.05-5.74s3.8,2.56,2.56,6.13c-.7,2.25-3.65,8.84-6.52,15.2-3.33,7.21-8.84,20-9.15,20.71h-.7C461.68,104.06,464.4,91.49,465.8,84.2Z"/><rect class="cls-1" x="168" y="18" width="389.37" height="164.1"/><line class="cls-2" x1="168" y1="50.06" x2="557.37" y2="50.06"/><path d="M533.3,43.07a1.78,1.78,0,0,1,1.8-1.8,1.8,1.8,0,0,1,0,3.6A1.76,1.76,0,0,1,533.3,43.07Zm.69-9.6c-.28-2-.56-4.17-.56-4.78,0-1.37.63-2.15,1.7-2.15s1.64.71,1.64,2.07c0,.69-.25,2.86-.56,4.91-.37,2.59-1,6.51-1,6.51h-.33S534.34,36.11,534,33.47Z"/><path d="M219.82,92.13c-.24-7.53-1.25-10.08-8.77-10.71l.16-.46c3.25.08,7.83.23,12.17.23,5.12,0,7.84-.08,11.64-.23l-.08.46c-5.51.39-7.45,3.42-7.52,8.85-.24,12.25.15,25.59.38,33.5,5.59-8,12-17.14,18.31-26.52-.47-13.34-.31-15.2-5.51-15.83l.08-.46c2.95.15,4.89.23,9.15.23,5.12,0,6.83-.08,11.09-.23l-.08.46c-6.2.39-7.44,3.11-7.44,7.84,0,12,.39,27.14.85,35.13,5.59-7.6,14.82-20.63,22.73-32.73,4.26-6.59,2.56-9.85-4.81-10.24l.08-.46c4.34.15,5.74.23,10.16.23s6.9-.08,10.54-.23l-.07.46c-4.73.63-7.76,2.41-12.57,8.77-11.4,15.36-24.74,34.05-32.42,45.14l-1,.39c.31-9.08-.31-24.75-.62-36.46-7.44,10.47-17.6,24.9-25,36.07l-.93.39C220.59,125.32,220.28,106.86,219.82,92.13Z"/><path d="M300.47,106.86c-.07,2.25-1.24,4.11-5,6a50.87,50.87,0,0,1-15.2,4.74,28.92,28.92,0,0,0-1.47,7.52c-.08,3.88,1.08,6.44,4.57,6.44,5.35,0,8.92-4.66,10.63-10.71l.54-.08c-1.4,9.55-6.13,15.05-14.19,15.05-5.36,0-8.69-2.25-8.77-7.68a32.26,32.26,0,0,1,1.86-10c-.93-.08-2.25-.16-3-.31l.23-.47A14.54,14.54,0,0,0,274,117a32.59,32.59,0,0,1,8.45-12.48c3.65-3.1,8.22-5.28,11.87-5.28C297.45,99.26,300.47,103.68,300.47,106.86Zm-6.05.86c-.07-3.26-1.47-6.83-3.41-6.83-3.88,0-8.3,8.61-10.39,15.59a31.38,31.38,0,0,0,8.92-3.1C292.72,111.67,294.42,109.73,294.42,107.72Z"/><path d="M302.57,127c3.56-9.77,11.86-34.13,14.35-44.75-2.41-.23-5.51,1.08-7.06,1.94l-.24-.39c1.25-1.4,5.51-5.82,11.79-5.82,1.56,0,4.42.08,2.87,4.42-5.81,16.45-14.81,42.2-15.82,48.56,7.91.07,8.92-6.52,9.08-10.79l.46-.15c1,8.22-2.71,15.67-12.1,15.67C300.55,135.72,300.4,133,302.57,127Z"/><path d="M332.12,135.79c-5.59,0-9.08-2.48-9.23-7.83s3.1-17.22,10.47-23.58c3.72-3.18,8.14-5.12,11.79-5s6.74,2.41,6.2,7.06A5.31,5.31,0,0,1,346,111l-.39-.31c.54-4-.31-9.77-3.26-9.85-3.87-.15-7.29,6.44-10.23,14.2a34.1,34.1,0,0,0-2.25,10.86c0,4.18,2.09,5.74,5,5.74,5.12,0,8.92-4.58,10.86-10.79l.46-.07C344.76,130.21,339.79,135.79,332.12,135.79Z"/><path d="M379.19,120c-2.94,8.69-10.24,16-17.91,15.9-7.45-.15-10.47-6.28-10.47-12.56a26.51,26.51,0,0,1,1.86-9.47c3.18-8.37,9.85-14.5,18-14.5,7.52,0,10,5.9,10,12.18A26.22,26.22,0,0,1,379.19,120Zm-7.06-1.39a46.17,46.17,0,0,0,2.64-13.19c0-2.71-.62-5.27-3.57-5.27C365.7,100,362,109,360,114.62A46.33,46.33,0,0,0,357,129c0,2.95.7,5.66,3.72,6.13C366.32,136,370.43,124.08,372.13,118.58Z"/><path d="M411.46,126.87l.31.24c5.58-10.63,16.83-27.69,23.11-27.69,2.17,0,4.65,2.87,4.81,4.57.08,2.49-5,13.81-6.75,19a53.69,53.69,0,0,0-2.25,8c7.68.15,8.92-6.67,8.84-10.86l.55-.08c.85,8.3-2.56,15.67-12.26,15.59-4.88,0-5.66-1.78-2.95-8.69,2.56-6.59,5.36-12.87,7.68-20.4.55-1.62,0-1.86-.46-2.09-1.17,0-2.95,1.47-4,2.48-6.44,6-14.19,16.68-19.62,28.93l-1.86-.31c-1.09-.23-3.11-2.48-1.17-8.22,2.1-6,5.36-13.65,7.6-20.79.47-1.62-.07-1.78-.54-2.09-1.16,0-3,1.47-4,2.48-6.44,6-14.43,17.3-19.55,29l-1.86-.31C386,135.25,384,133,386,127.26c3.25-9.3,6.82-19.23,7.6-23.27-5.35-.07-8.3,6.13-8.3,10.94l-.62.23c-.31-9.46,3.95-15.74,12.1-15.74a23.06,23.06,0,0,1,5.27.77l-10,26.68.31.24c5.58-10.63,16.9-27.69,22.88-27.69,2.25,0,4.73,2.79,4.81,4.5C420.22,106.55,413.32,121.52,411.46,126.87Z"/><path d="M474.74,106.86c-.08,2.25-1.24,4.11-5,6a51,51,0,0,1-15.2,4.74,29,29,0,0,0-1.48,7.52c-.08,3.88,1.09,6.44,4.58,6.44,5.35,0,8.92-4.66,10.62-10.71l.55-.08c-1.4,9.55-6.13,15.05-14.2,15.05-5.35,0-8.68-2.25-8.76-7.68a32,32,0,0,1,1.86-10c-.93-.08-2.25-.16-3-.31l.23-.47a14.54,14.54,0,0,0,3.26-.39,32.48,32.48,0,0,1,8.45-12.48c3.65-3.1,8.22-5.28,11.87-5.28C471.72,99.26,474.74,103.68,474.74,106.86Zm-6.05.86c-.08-3.26-1.47-6.83-3.41-6.83-3.88,0-8.3,8.61-10.39,15.59a31.38,31.38,0,0,0,8.92-3.1C467,111.67,468.69,109.73,468.69,107.72Z"/><path d="M475.83,131.14a4.6,4.6,0,0,1,4.65-4.58,4.62,4.62,0,0,1,0,9.23A4.56,4.56,0,0,1,475.83,131.14Zm10.7-29.94c1.24-6.13,2.87-13.57,3.41-15.43C491.26,81.66,493,80,496,80s3.8,2.56,2.56,6.13c-.7,2.25-3.64,8.84-6.51,15.2-3.34,7.21-8.85,20-9.16,20.71h-.69C482.42,121.06,485.13,108.49,486.53,101.2Z"/><path d="M499.09,131.14a4.61,4.61,0,0,1,4.66-4.58,4.62,4.62,0,0,1,0,9.23A4.57,4.57,0,0,1,499.09,131.14ZM509.8,101.2c1.24-6.13,2.87-13.57,3.41-15.43,1.32-4.11,3-5.74,6-5.74s3.8,2.56,2.56,6.13c-.7,2.25-3.65,8.84-6.52,15.2-3.33,7.21-8.84,20-9.15,20.71h-.7C505.68,121.06,508.4,108.49,509.8,101.2Z"/><rect class="cls-1" x="196" y="36" width="389.37" height="164.1"/><line class="cls-2" x1="196" y1="68.06" x2="585.37" y2="68.06"/><path d="M561.3,61.07a1.78,1.78,0,0,1,1.8-1.8,1.8,1.8,0,0,1,0,3.6A1.76,1.76,0,0,1,561.3,61.07Zm.69-9.6c-.28-2-.56-4.17-.56-4.78,0-1.37.63-2.15,1.7-2.15s1.64.71,1.64,2.07c0,.69-.25,2.86-.56,4.91-.37,2.59-1,6.51-1,6.51h-.33S562.34,54.11,562,51.47Z"/><path d="M247.82,110.13c-.24-7.53-1.25-10.08-8.77-10.71l.16-.46c3.25.08,7.83.23,12.17.23,5.12,0,7.84-.08,11.64-.23l-.08.46c-5.51.39-7.45,3.42-7.52,8.85-.24,12.25.15,25.59.38,33.5,5.59-8,12-17.14,18.31-26.52-.47-13.34-.31-15.2-5.51-15.83l.08-.46c2.95.15,4.89.23,9.15.23,5.12,0,6.83-.08,11.09-.23l-.08.46c-6.2.39-7.44,3.11-7.44,7.84,0,12,.39,27.14.85,35.13,5.59-7.6,14.82-20.63,22.73-32.73,4.26-6.59,2.56-9.85-4.81-10.24l.08-.46c4.34.15,5.74.23,10.16.23s6.9-.08,10.54-.23l-.07.46c-4.73.63-7.76,2.41-12.57,8.77-11.4,15.36-24.74,34.05-32.42,45.14l-1,.39c.31-9.08-.31-24.75-.62-36.46-7.44,10.47-17.6,24.9-25,36.07l-.93.39C248.59,143.32,248.28,124.86,247.82,110.13Z"/><path d="M328.47,124.86c-.07,2.25-1.24,4.11-5,6a50.87,50.87,0,0,1-15.2,4.74,28.92,28.92,0,0,0-1.47,7.52c-.08,3.88,1.08,6.44,4.57,6.44,5.35,0,8.92-4.66,10.63-10.71l.54-.08c-1.4,9.55-6.13,15.05-14.19,15.05-5.36,0-8.69-2.25-8.77-7.68a32.26,32.26,0,0,1,1.86-10c-.93-.08-2.25-.16-3-.31l.23-.47A14.54,14.54,0,0,0,302,135a32.59,32.59,0,0,1,8.45-12.48c3.65-3.1,8.22-5.28,11.87-5.28C325.45,117.26,328.47,121.68,328.47,124.86Zm-6.05.86c-.07-3.26-1.47-6.83-3.41-6.83-3.88,0-8.3,8.61-10.39,15.59a31.38,31.38,0,0,0,8.92-3.1C320.72,129.67,322.42,127.73,322.42,125.72Z"/><path d="M330.57,145c3.56-9.77,11.86-34.13,14.35-44.75-2.41-.23-5.51,1.08-7.06,1.94l-.24-.39c1.25-1.4,5.51-5.82,11.79-5.82,1.56,0,4.42.08,2.87,4.42-5.81,16.45-14.81,42.2-15.82,48.56,7.91.07,8.92-6.52,9.08-10.79l.46-.15c1,8.22-2.71,15.67-12.1,15.67C328.55,153.72,328.4,151,330.57,145Z"/><path d="M360.12,153.79c-5.59,0-9.08-2.48-9.23-7.83s3.1-17.22,10.47-23.58c3.72-3.18,8.14-5.12,11.79-5s6.74,2.41,6.2,7.06A5.31,5.31,0,0,1,374,129l-.39-.31c.54-4-.31-9.77-3.26-9.85-3.87-.15-7.29,6.44-10.23,14.2a34.1,34.1,0,0,0-2.25,10.86c0,4.18,2.09,5.74,5,5.74,5.12,0,8.92-4.58,10.86-10.79l.46-.07C372.76,148.21,367.79,153.79,360.12,153.79Z"/><path d="M407.19,138c-2.94,8.69-10.24,16-17.91,15.9-7.45-.15-10.47-6.28-10.47-12.56a26.51,26.51,0,0,1,1.86-9.47c3.18-8.37,9.85-14.5,18-14.5,7.52,0,10,5.9,10,12.18A26.22,26.22,0,0,1,407.19,138Zm-7.06-1.39a46.17,46.17,0,0,0,2.64-13.19c0-2.71-.62-5.27-3.57-5.27C393.7,118,390,127,388,132.62A46.33,46.33,0,0,0,385,147c0,2.95.7,5.66,3.72,6.13C394.32,154,398.43,142.08,400.13,136.58Z"/><path d="M439.46,144.87l.31.24c5.58-10.63,16.83-27.69,23.11-27.69,2.17,0,4.65,2.87,4.81,4.57.08,2.49-5,13.81-6.75,19a53.69,53.69,0,0,0-2.25,8c7.68.15,8.92-6.67,8.84-10.86l.55-.08c.85,8.3-2.56,15.67-12.26,15.59-4.88,0-5.66-1.78-2.95-8.69,2.56-6.59,5.36-12.87,7.68-20.4.55-1.62,0-1.86-.46-2.09-1.17,0-2.95,1.47-4,2.48-6.44,6.05-14.19,16.68-19.62,28.93l-1.86-.31c-1.09-.23-3.11-2.48-1.17-8.22,2.1-6.05,5.36-13.65,7.6-20.79.47-1.62-.07-1.78-.54-2.09-1.16,0-3,1.47-4,2.48-6.44,6.05-14.43,17.3-19.55,29l-1.86-.31C414,153.25,412,151,414,145.26c3.25-9.3,6.82-19.23,7.6-23.27-5.35-.07-8.3,6.13-8.3,10.94l-.62.23c-.31-9.46,3.95-15.74,12.1-15.74a23.06,23.06,0,0,1,5.27.77l-10,26.68.31.24c5.58-10.63,16.9-27.69,22.88-27.69,2.25,0,4.73,2.79,4.81,4.5C448.22,124.55,441.32,139.52,439.46,144.87Z"/><path d="M502.74,124.86c-.08,2.25-1.24,4.11-5,6a51,51,0,0,1-15.2,4.74,29,29,0,0,0-1.48,7.52c-.08,3.88,1.09,6.44,4.58,6.44,5.35,0,8.92-4.66,10.62-10.71l.55-.08c-1.4,9.55-6.13,15.05-14.2,15.05-5.35,0-8.68-2.25-8.76-7.68a32,32,0,0,1,1.86-10c-.93-.08-2.25-.16-3-.31l.23-.47a14.54,14.54,0,0,0,3.26-.39,32.48,32.48,0,0,1,8.45-12.48c3.65-3.1,8.22-5.28,11.87-5.28C499.72,117.26,502.74,121.68,502.74,124.86Zm-6.05.86c-.08-3.26-1.47-6.83-3.41-6.83-3.88,0-8.3,8.61-10.39,15.59a31.38,31.38,0,0,0,8.92-3.1C495,129.67,496.69,127.73,496.69,125.72Z"/><path d="M503.83,149.14a4.6,4.6,0,0,1,4.65-4.58,4.62,4.62,0,0,1,0,9.23A4.56,4.56,0,0,1,503.83,149.14Zm10.7-29.94c1.24-6.13,2.87-13.57,3.41-15.43,1.32-4.11,3-5.74,6-5.74s3.8,2.56,2.56,6.13c-.7,2.25-3.64,8.84-6.51,15.2-3.34,7.21-8.85,20-9.16,20.71h-.69C510.42,139.06,513.13,126.49,514.53,119.2Z"/><path d="M527.09,149.14a4.61,4.61,0,0,1,4.66-4.58,4.62,4.62,0,0,1,0,9.23A4.57,4.57,0,0,1,527.09,149.14ZM537.8,119.2c1.24-6.13,2.87-13.57,3.41-15.43,1.32-4.11,3-5.74,6-5.74s3.8,2.56,2.56,6.13c-.7,2.25-3.65,8.84-6.52,15.2-3.33,7.21-8.84,20-9.15,20.71h-.7C533.68,139.06,536.4,126.49,537.8,119.2Z"/><rect class="cls-1" x="116" y="53" width="389.37" height="164.1"/><line class="cls-2" x1="116" y1="85.06" x2="505.37" y2="85.06"/><path d="M481.3,78.07a1.78,1.78,0,0,1,1.8-1.8,1.8,1.8,0,0,1,0,3.6A1.76,1.76,0,0,1,481.3,78.07Zm.69-9.6c-.28-2-.56-4.17-.56-4.78,0-1.37.63-2.15,1.7-2.15s1.64.71,1.64,2.07c0,.69-.25,2.86-.56,4.91-.37,2.59-1,6.51-1,6.51h-.33S482.34,71.11,482,68.47Z"/><path d="M167.82,127.13c-.24-7.53-1.25-10.08-8.77-10.71l.16-.46c3.25.08,7.83.23,12.17.23,5.12,0,7.84-.08,11.64-.23l-.08.46c-5.51.39-7.45,3.42-7.52,8.85-.24,12.25.15,25.59.38,33.5,5.59-8,12-17.14,18.31-26.52-.47-13.34-.31-15.2-5.51-15.83l.08-.46c2.95.15,4.89.23,9.15.23,5.12,0,6.83-.08,11.09-.23l-.08.46c-6.2.39-7.44,3.11-7.44,7.84,0,12,.39,27.14.85,35.13,5.59-7.6,14.82-20.63,22.73-32.73,4.26-6.59,2.56-9.85-4.81-10.24l.08-.46c4.34.15,5.74.23,10.16.23s6.9-.08,10.54-.23l-.07.46c-4.73.63-7.76,2.41-12.57,8.77-11.4,15.36-24.74,34.05-32.42,45.14l-1,.39c.31-9.08-.31-24.75-.62-36.46-7.44,10.47-17.6,24.9-25,36.07l-.93.39C168.59,160.32,168.28,141.86,167.82,127.13Z"/><path d="M248.47,141.86c-.07,2.25-1.24,4.11-5,6a50.87,50.87,0,0,1-15.2,4.74,28.92,28.92,0,0,0-1.47,7.52c-.08,3.88,1.08,6.44,4.57,6.44,5.35,0,8.92-4.66,10.63-10.71l.54-.08c-1.4,9.55-6.13,15.05-14.19,15.05-5.36,0-8.69-2.25-8.77-7.68a32.26,32.26,0,0,1,1.86-10c-.93-.08-2.25-.16-3-.31l.23-.47A14.54,14.54,0,0,0,222,152a32.59,32.59,0,0,1,8.45-12.48c3.65-3.1,8.22-5.28,11.87-5.28C245.45,134.26,248.47,138.68,248.47,141.86Zm-6.05.86c-.07-3.26-1.47-6.83-3.41-6.83-3.88,0-8.3,8.61-10.39,15.59a31.38,31.38,0,0,0,8.92-3.1C240.72,146.67,242.42,144.73,242.42,142.72Z"/><path d="M250.57,162c3.56-9.77,11.86-34.13,14.35-44.75-2.41-.23-5.51,1.08-7.06,1.94l-.24-.39c1.25-1.4,5.51-5.82,11.79-5.82,1.56,0,4.42.08,2.87,4.42-5.81,16.45-14.81,42.2-15.82,48.56,7.91.07,8.92-6.52,9.08-10.79l.46-.15c1,8.22-2.71,15.67-12.1,15.67C248.55,170.72,248.4,168,250.57,162Z"/><path d="M280.12,170.79c-5.59,0-9.08-2.48-9.23-7.83s3.1-17.22,10.47-23.58c3.72-3.18,8.14-5.12,11.79-5s6.74,2.41,6.2,7.06A5.31,5.31,0,0,1,294,146l-.39-.31c.54-3.95-.31-9.77-3.26-9.85-3.87-.15-7.29,6.44-10.23,14.2a34.1,34.1,0,0,0-2.25,10.86c0,4.18,2.09,5.74,5,5.74,5.12,0,8.92-4.58,10.86-10.79l.46-.07C292.76,165.21,287.79,170.79,280.12,170.79Z"/><path d="M327.19,155c-2.94,8.69-10.24,16-17.91,15.9-7.45-.15-10.47-6.28-10.47-12.56a26.51,26.51,0,0,1,1.86-9.47c3.18-8.37,9.85-14.5,18-14.5,7.52,0,10,5.9,10,12.18A26.22,26.22,0,0,1,327.19,155Zm-7.06-1.39a46.17,46.17,0,0,0,2.64-13.19c0-2.71-.62-5.27-3.57-5.27C313.7,135,310,144,308,149.62A46.33,46.33,0,0,0,305,164c0,2.95.7,5.66,3.72,6.13C314.32,171,318.43,159.08,320.13,153.58Z"/><path d="M359.46,161.87l.31.24c5.58-10.63,16.83-27.69,23.11-27.69,2.17,0,4.65,2.87,4.81,4.57.08,2.49-5,13.81-6.75,19a53.69,53.69,0,0,0-2.25,8c7.68.15,8.92-6.67,8.84-10.86l.55-.08c.85,8.3-2.56,15.67-12.26,15.59-4.88,0-5.66-1.78-2.95-8.69,2.56-6.59,5.36-12.87,7.68-20.4.55-1.62,0-1.86-.46-2.09-1.17,0-2.95,1.47-4,2.48-6.44,6.05-14.19,16.68-19.62,28.93l-1.86-.31c-1.09-.23-3.11-2.48-1.17-8.22,2.1-6.05,5.36-13.65,7.6-20.79.47-1.62-.07-1.78-.54-2.09-1.16,0-3,1.47-4,2.48-6.44,6.05-14.43,17.3-19.55,29l-1.86-.31C334,170.25,332,168,334,162.26c3.25-9.3,6.82-19.23,7.6-23.27-5.35-.07-8.3,6.13-8.3,10.94l-.62.23c-.31-9.46,3.95-15.74,12.1-15.74a23.06,23.06,0,0,1,5.27.77l-10,26.68.31.24c5.58-10.63,16.9-27.69,22.88-27.69,2.25,0,4.73,2.79,4.81,4.5C368.22,141.55,361.32,156.52,359.46,161.87Z"/><path d="M422.74,141.86c-.08,2.25-1.24,4.11-5,6a51,51,0,0,1-15.2,4.74,29,29,0,0,0-1.48,7.52c-.08,3.88,1.09,6.44,4.58,6.44,5.35,0,8.92-4.66,10.62-10.71l.55-.08c-1.4,9.55-6.13,15.05-14.2,15.05-5.35,0-8.68-2.25-8.76-7.68a32,32,0,0,1,1.86-10c-.93-.08-2.25-.16-3-.31l.23-.47a14.54,14.54,0,0,0,3.26-.39,32.48,32.48,0,0,1,8.45-12.48c3.65-3.1,8.22-5.28,11.87-5.28C419.72,134.26,422.74,138.68,422.74,141.86Zm-6.05.86c-.08-3.26-1.47-6.83-3.41-6.83-3.88,0-8.3,8.61-10.39,15.59a31.38,31.38,0,0,0,8.92-3.1C415,146.67,416.69,144.73,416.69,142.72Z"/><path d="M423.83,166.14a4.6,4.6,0,0,1,4.65-4.58,4.62,4.62,0,0,1,0,9.23A4.56,4.56,0,0,1,423.83,166.14Zm10.7-29.94c1.24-6.13,2.87-13.57,3.41-15.43,1.32-4.11,3-5.74,6.05-5.74s3.8,2.56,2.56,6.13c-.7,2.25-3.64,8.84-6.51,15.2-3.34,7.21-8.85,20-9.16,20.71h-.69C430.42,156.06,433.13,143.49,434.53,136.2Z"/><path d="M447.09,166.14a4.61,4.61,0,0,1,4.66-4.58,4.62,4.62,0,0,1,0,9.23A4.57,4.57,0,0,1,447.09,166.14ZM457.8,136.2c1.24-6.13,2.87-13.57,3.41-15.43,1.32-4.11,3-5.74,6.05-5.74s3.8,2.56,2.56,6.13c-.7,2.25-3.65,8.84-6.52,15.2-3.33,7.21-8.84,20-9.15,20.71h-.7C453.68,156.06,456.4,143.49,457.8,136.2Z"/><rect class="cls-1" x="66" y="118" width="389.37" height="164.1"/><line class="cls-2" x1="66" y1="150.06" x2="455.37" y2="150.06"/><path d="M431.3,143.07a1.78,1.78,0,0,1,1.8-1.8,1.8,1.8,0,0,1,0,3.6A1.76,1.76,0,0,1,431.3,143.07Zm.69-9.6c-.28-2-.56-4.17-.56-4.78,0-1.37.63-2.15,1.7-2.15s1.64.71,1.64,2.07c0,.69-.25,2.86-.56,4.91-.37,2.59-1,6.51-1,6.51h-.33S432.34,136.11,432,133.47Z"/><path d="M117.82,192.13c-.24-7.53-1.25-10.08-8.77-10.71l.16-.46c3.25.08,7.83.23,12.17.23,5.12,0,7.84-.08,11.64-.23l-.08.46c-5.51.39-7.45,3.42-7.52,8.85-.24,12.25.15,25.59.38,33.5,5.59-8,12-17.14,18.31-26.52-.47-13.34-.31-15.2-5.51-15.83l.08-.46c2.95.15,4.89.23,9.15.23,5.12,0,6.83-.08,11.09-.23l-.08.46c-6.2.39-7.44,3.11-7.44,7.84,0,12,.39,27.14.85,35.13,5.59-7.6,14.82-20.63,22.73-32.73,4.26-6.59,2.56-9.85-4.81-10.24l.08-.46c4.34.15,5.74.23,10.16.23s6.9-.08,10.54-.23l-.07.46c-4.73.63-7.76,2.41-12.57,8.77-11.4,15.36-24.74,34.05-32.42,45.14l-1,.39c.31-9.08-.31-24.75-.62-36.46-7.44,10.47-17.6,24.9-25,36.07l-.93.39C118.59,225.32,118.28,206.86,117.82,192.13Z"/><path d="M198.47,206.86c-.07,2.25-1.24,4.11-5,6a50.87,50.87,0,0,1-15.2,4.74,28.92,28.92,0,0,0-1.47,7.52c-.08,3.88,1.08,6.44,4.57,6.44,5.35,0,8.92-4.66,10.63-10.71l.54-.08c-1.4,9.55-6.13,15.05-14.19,15.05-5.36,0-8.69-2.25-8.77-7.68a32.26,32.26,0,0,1,1.86-10c-.93-.08-2.25-.16-3-.31l.23-.47A14.54,14.54,0,0,0,172,217a32.59,32.59,0,0,1,8.45-12.48c3.65-3.1,8.22-5.28,11.87-5.28C195.45,199.26,198.47,203.68,198.47,206.86Zm-6.05.86c-.07-3.26-1.47-6.83-3.41-6.83-3.88,0-8.3,8.61-10.39,15.59a31.38,31.38,0,0,0,8.92-3.1C190.72,211.67,192.42,209.73,192.42,207.72Z"/><path d="M200.57,227c3.56-9.77,11.86-34.13,14.35-44.75-2.41-.23-5.51,1.08-7.06,1.94l-.24-.39c1.25-1.4,5.51-5.82,11.79-5.82,1.56,0,4.42.08,2.87,4.42-5.81,16.45-14.81,42.2-15.82,48.56,7.91.07,8.92-6.52,9.08-10.79l.46-.15c1,8.22-2.71,15.67-12.1,15.67C198.55,235.72,198.4,233,200.57,227Z"/><path d="M230.12,235.79c-5.59,0-9.08-2.48-9.23-7.83s3.1-17.22,10.47-23.58c3.72-3.18,8.14-5.12,11.79-5s6.74,2.41,6.2,7.06A5.31,5.31,0,0,1,244,211l-.39-.31c.54-3.95-.31-9.77-3.26-9.85-3.87-.15-7.29,6.44-10.23,14.2a34.1,34.1,0,0,0-2.25,10.86c0,4.18,2.09,5.74,5,5.74,5.12,0,8.92-4.58,10.86-10.79l.46-.07C242.76,230.21,237.79,235.79,230.12,235.79Z"/><path d="M277.19,220c-2.94,8.69-10.24,16-17.91,15.9-7.45-.15-10.47-6.28-10.47-12.56a26.51,26.51,0,0,1,1.86-9.47c3.18-8.37,9.85-14.5,18-14.5,7.52,0,10,5.9,10,12.18A26.22,26.22,0,0,1,277.19,220Zm-7.06-1.39a46.17,46.17,0,0,0,2.64-13.19c0-2.71-.62-5.27-3.57-5.27C263.7,200,260,209,258,214.62A46.33,46.33,0,0,0,255,229c0,2.95.7,5.66,3.72,6.13C264.32,236,268.43,224.08,270.13,218.58Z"/><path d="M309.46,226.87l.31.24c5.58-10.63,16.83-27.69,23.11-27.69,2.17,0,4.65,2.87,4.81,4.57.08,2.49-5,13.81-6.75,19a53.69,53.69,0,0,0-2.25,8c7.68.15,8.92-6.67,8.84-10.86l.55-.08c.85,8.3-2.56,15.67-12.26,15.59-4.88,0-5.66-1.78-2.95-8.69,2.56-6.59,5.36-12.87,7.68-20.4.55-1.62,0-1.86-.46-2.09-1.17,0-2.95,1.47-4,2.48-6.44,6.05-14.19,16.68-19.62,28.93l-1.86-.31c-1.09-.23-3.11-2.48-1.17-8.22,2.1-6.05,5.36-13.65,7.6-20.79.47-1.62-.07-1.78-.54-2.09-1.16,0-3,1.47-4,2.48-6.44,6.05-14.43,17.3-19.55,29l-1.86-.31C284,235.25,282,233,284,227.26c3.25-9.3,6.82-19.23,7.6-23.27-5.35-.07-8.3,6.13-8.3,10.94l-.62.23c-.31-9.46,3.95-15.74,12.1-15.74a23.06,23.06,0,0,1,5.27.77l-10,26.68.31.24c5.58-10.63,16.9-27.69,22.88-27.69,2.25,0,4.73,2.79,4.81,4.5C318.22,206.55,311.32,221.52,309.46,226.87Z"/><path d="M372.74,206.86c-.08,2.25-1.24,4.11-5,6a51,51,0,0,1-15.2,4.74,29,29,0,0,0-1.48,7.52c-.08,3.88,1.09,6.44,4.58,6.44,5.35,0,8.92-4.66,10.62-10.71l.55-.08c-1.4,9.55-6.13,15.05-14.2,15.05-5.35,0-8.68-2.25-8.76-7.68a32,32,0,0,1,1.86-10c-.93-.08-2.25-.16-3-.31l.23-.47a14.54,14.54,0,0,0,3.26-.39,32.48,32.48,0,0,1,8.45-12.48c3.65-3.1,8.22-5.28,11.87-5.28C369.72,199.26,372.74,203.68,372.74,206.86Zm-6.05.86c-.08-3.26-1.47-6.83-3.41-6.83-3.88,0-8.3,8.61-10.39,15.59a31.38,31.38,0,0,0,8.92-3.1C365,211.67,366.69,209.73,366.69,207.72Z"/><path d="M373.83,231.14a4.6,4.6,0,0,1,4.65-4.58,4.62,4.62,0,0,1,0,9.23A4.56,4.56,0,0,1,373.83,231.14Zm10.7-29.94c1.24-6.13,2.87-13.57,3.41-15.43,1.32-4.11,3-5.74,6.05-5.74s3.8,2.56,2.56,6.13c-.7,2.25-3.64,8.84-6.51,15.2-3.34,7.21-8.85,20-9.16,20.71h-.69C380.42,221.06,383.13,208.49,384.53,201.2Z"/><path d="M397.09,231.14a4.61,4.61,0,0,1,4.66-4.58,4.62,4.62,0,0,1,0,9.23A4.57,4.57,0,0,1,397.09,231.14ZM407.8,201.2c1.24-6.13,2.87-13.57,3.41-15.43,1.32-4.11,3-5.74,6.05-5.74s3.8,2.56,2.56,6.13c-.7,2.25-3.65,8.84-6.52,15.2-3.33,7.21-8.84,20-9.15,20.71h-.7C403.68,221.06,406.4,208.49,407.8,201.2Z"/><rect class="cls-1" x="1" y="192" width="389.37" height="164.1"/><line class="cls-2" x1="1" y1="224.06" x2="390.37" y2="224.06"/><path d="M366.3,217.07a1.78,1.78,0,0,1,1.8-1.8,1.8,1.8,0,0,1,0,3.6A1.76,1.76,0,0,1,366.3,217.07Zm.69-9.6c-.28-2-.56-4.17-.56-4.78,0-1.37.63-2.15,1.7-2.15s1.64.71,1.64,2.07c0,.69-.25,2.86-.56,4.91-.37,2.59-1,6.51-1,6.51h-.33S367.34,210.11,367,207.47Z"/><path d="M52.82,266.13c-.24-7.53-1.25-10.08-8.77-10.71l.16-.46c3.25.08,7.83.23,12.17.23,5.12,0,7.84-.08,11.64-.23l-.08.46c-5.51.39-7.45,3.42-7.52,8.85-.24,12.25.15,25.59.38,33.5,5.59-8,12-17.14,18.31-26.52-.47-13.34-.31-15.2-5.51-15.83l.08-.46c2.95.15,4.89.23,9.15.23,5.12,0,6.83-.08,11.09-.23l-.08.46c-6.2.39-7.44,3.11-7.44,7.84,0,12,.39,27.14.85,35.13,5.59-7.6,14.82-20.63,22.73-32.73,4.26-6.59,2.56-9.85-4.81-10.24l.08-.46c4.34.15,5.74.23,10.16.23s6.9-.08,10.54-.23l-.07.46c-4.73.63-7.76,2.41-12.57,8.77-11.4,15.36-24.74,34.05-32.42,45.14l-1,.39c.31-9.08-.31-24.75-.62-36.46-7.44,10.47-17.6,24.9-25,36.07l-.93.39C53.59,299.32,53.28,280.86,52.82,266.13Z"/><path d="M133.47,280.86c-.07,2.25-1.24,4.11-5,6.05a50.87,50.87,0,0,1-15.2,4.74,28.92,28.92,0,0,0-1.47,7.52c-.08,3.88,1.08,6.44,4.57,6.44,5.35,0,8.92-4.66,10.63-10.71l.54-.08c-1.4,9.55-6.13,15.05-14.19,15.05-5.36,0-8.69-2.25-8.77-7.68a32.26,32.26,0,0,1,1.86-10c-.93-.08-2.25-.16-3-.31l.23-.47A14.54,14.54,0,0,0,107,291a32.59,32.59,0,0,1,8.45-12.48c3.65-3.1,8.22-5.28,11.87-5.28C130.45,273.26,133.47,277.68,133.47,280.86Zm-6,.86c-.07-3.26-1.47-6.83-3.41-6.83-3.88,0-8.3,8.61-10.39,15.59a31.38,31.38,0,0,0,8.92-3.1C125.72,285.67,127.42,283.73,127.42,281.72Z"/><path d="M135.57,301c3.56-9.77,11.86-34.13,14.35-44.75-2.41-.23-5.51,1.08-7.06,1.94l-.24-.39c1.25-1.4,5.51-5.82,11.79-5.82,1.56,0,4.42.08,2.87,4.42-5.81,16.45-14.81,42.2-15.82,48.56,7.91.07,8.92-6.52,9.08-10.79l.46-.15c1,8.22-2.71,15.67-12.1,15.67C133.55,309.72,133.4,307,135.57,301Z"/><path d="M165.12,309.79c-5.59,0-9.08-2.48-9.23-7.83s3.1-17.22,10.47-23.58c3.72-3.18,8.14-5.12,11.79-5s6.74,2.41,6.2,7.06A5.31,5.31,0,0,1,179,285l-.39-.31c.54-4-.31-9.77-3.26-9.85-3.87-.15-7.29,6.44-10.23,14.2a34.1,34.1,0,0,0-2.25,10.86c0,4.18,2.09,5.74,5,5.74,5.12,0,8.92-4.58,10.86-10.79l.46-.07C177.76,304.21,172.79,309.79,165.12,309.79Z"/><path d="M212.19,294c-2.94,8.69-10.24,16-17.91,15.9-7.45-.15-10.47-6.28-10.47-12.56a26.51,26.51,0,0,1,1.86-9.47c3.18-8.37,9.85-14.5,18-14.5,7.52,0,10,5.9,10,12.18A26.22,26.22,0,0,1,212.19,294Zm-7.06-1.39a46.17,46.17,0,0,0,2.64-13.19c0-2.71-.62-5.27-3.57-5.27C198.7,274,195,283,193,288.62A46.33,46.33,0,0,0,190,303c0,2.95.7,5.66,3.72,6.13C199.32,310,203.43,298.08,205.13,292.58Z"/><path d="M244.46,300.87l.31.24c5.58-10.63,16.83-27.69,23.11-27.69,2.17,0,4.65,2.87,4.81,4.57.08,2.49-5,13.81-6.75,19a53.69,53.69,0,0,0-2.25,8c7.68.15,8.92-6.67,8.84-10.86l.55-.08c.85,8.3-2.56,15.67-12.26,15.59-4.88,0-5.66-1.78-2.95-8.69,2.56-6.59,5.36-12.87,7.68-20.4.55-1.62,0-1.86-.46-2.09-1.17,0-2.95,1.47-4,2.48-6.44,6.05-14.19,16.68-19.62,28.93l-1.86-.31c-1.09-.23-3.11-2.48-1.17-8.22,2.1-6,5.36-13.65,7.6-20.79.47-1.62-.07-1.78-.54-2.09-1.16,0-2.95,1.47-3.95,2.48-6.44,6.05-14.43,17.3-19.55,29l-1.86-.31C219,309.25,217,307,219,301.26c3.25-9.3,6.82-19.23,7.6-23.27-5.35-.07-8.3,6.13-8.3,10.94l-.62.23c-.31-9.46,4-15.74,12.1-15.74a23.06,23.06,0,0,1,5.27.77l-10,26.68.31.24c5.58-10.63,16.9-27.69,22.88-27.69,2.25,0,4.73,2.79,4.81,4.5C253.22,280.55,246.32,295.52,244.46,300.87Z"/><path d="M307.74,280.86c-.08,2.25-1.24,4.11-5,6.05a51,51,0,0,1-15.2,4.74,29,29,0,0,0-1.48,7.52c-.08,3.88,1.09,6.44,4.58,6.44,5.35,0,8.92-4.66,10.62-10.71l.55-.08c-1.4,9.55-6.13,15.05-14.2,15.05-5.35,0-8.68-2.25-8.76-7.68a32,32,0,0,1,1.86-10c-.93-.08-2.25-.16-3-.31l.23-.47a14.54,14.54,0,0,0,3.26-.39,32.48,32.48,0,0,1,8.45-12.48c3.65-3.1,8.22-5.28,11.87-5.28C304.72,273.26,307.74,277.68,307.74,280.86Zm-6.05.86c-.08-3.26-1.47-6.83-3.41-6.83-3.88,0-8.3,8.61-10.39,15.59a31.38,31.38,0,0,0,8.92-3.1C300,285.67,301.69,283.73,301.69,281.72Z"/><path d="M308.83,305.14a4.6,4.6,0,0,1,4.65-4.58,4.62,4.62,0,0,1,0,9.23A4.56,4.56,0,0,1,308.83,305.14Zm10.7-29.94c1.24-6.13,2.87-13.57,3.41-15.43,1.32-4.11,3-5.74,6.05-5.74s3.8,2.56,2.56,6.13c-.7,2.25-3.64,8.84-6.51,15.2-3.34,7.21-8.85,20-9.16,20.71h-.69C315.42,295.06,318.13,282.49,319.53,275.2Z"/><path d="M332.09,305.14a4.61,4.61,0,0,1,4.66-4.58,4.62,4.62,0,0,1,0,9.23A4.57,4.57,0,0,1,332.09,305.14ZM342.8,275.2c1.24-6.13,2.87-13.57,3.41-15.43,1.32-4.11,3-5.74,6.05-5.74s3.8,2.56,2.56,6.13c-.7,2.25-3.65,8.84-6.52,15.2-3.33,7.21-8.84,20-9.15,20.71h-.7C338.68,295.06,341.4,282.49,342.8,275.2Z"/><rect class="cls-1" x="205" y="235" width="389.37" height="164.1"/><line class="cls-2" x1="205" y1="267.06" x2="594.37" y2="267.06"/><path d="M570.3,260.07a1.78,1.78,0,0,1,1.8-1.8,1.8,1.8,0,0,1,0,3.6A1.76,1.76,0,0,1,570.3,260.07Zm.69-9.6c-.28-2-.56-4.17-.56-4.78,0-1.37.63-2.15,1.7-2.15s1.64.71,1.64,2.07c0,.69-.25,2.86-.56,4.91-.37,2.59-1,6.51-1,6.51h-.33S571.34,253.11,571,250.47Z"/><path d="M256.82,309.13c-.24-7.53-1.25-10.08-8.77-10.71l.16-.46c3.25.08,7.83.23,12.17.23,5.12,0,7.84-.08,11.64-.23l-.08.46c-5.51.39-7.45,3.42-7.52,8.85-.24,12.25.15,25.59.38,33.5,5.59-8,12-17.14,18.31-26.52-.47-13.34-.31-15.2-5.51-15.83l.08-.46c2.95.15,4.89.23,9.15.23,5.12,0,6.83-.08,11.09-.23l-.08.46c-6.2.39-7.44,3.11-7.44,7.84,0,12,.39,27.14.85,35.13,5.59-7.6,14.82-20.63,22.73-32.73,4.26-6.59,2.56-9.85-4.81-10.24l.08-.46c4.34.15,5.74.23,10.16.23s6.9-.08,10.54-.23l-.07.46c-4.73.63-7.76,2.41-12.57,8.77-11.4,15.36-24.74,34.05-32.42,45.14l-1,.39c.31-9.08-.31-24.75-.62-36.46-7.44,10.47-17.6,24.9-25,36.07l-.93.39C257.59,342.32,257.28,323.86,256.82,309.13Z"/><path d="M337.47,323.86c-.07,2.25-1.24,4.11-5,6.05a50.87,50.87,0,0,1-15.2,4.74,28.92,28.92,0,0,0-1.47,7.52c-.08,3.88,1.08,6.44,4.57,6.44,5.35,0,8.92-4.66,10.63-10.71l.54-.08c-1.4,9.55-6.13,15.05-14.19,15.05-5.36,0-8.69-2.25-8.77-7.68a32.26,32.26,0,0,1,1.86-10c-.93-.08-2.25-.16-3-.31l.23-.47A14.54,14.54,0,0,0,311,334a32.59,32.59,0,0,1,8.45-12.48c3.65-3.1,8.22-5.28,11.87-5.28C334.45,316.26,337.47,320.68,337.47,323.86Zm-6.05.86c-.07-3.26-1.47-6.83-3.41-6.83-3.88,0-8.3,8.61-10.39,15.59a31.38,31.38,0,0,0,8.92-3.1C329.72,328.67,331.42,326.73,331.42,324.72Z"/><path d="M339.57,344c3.56-9.77,11.86-34.13,14.35-44.75-2.41-.23-5.51,1.08-7.06,1.94l-.24-.39c1.25-1.4,5.51-5.82,11.79-5.82,1.56,0,4.42.08,2.87,4.42-5.81,16.45-14.81,42.2-15.82,48.56,7.91.07,8.92-6.52,9.08-10.79l.46-.15c1,8.22-2.71,15.67-12.1,15.67C337.55,352.72,337.4,350,339.57,344Z"/><path d="M369.12,352.79c-5.59,0-9.08-2.48-9.23-7.83s3.1-17.22,10.47-23.58c3.72-3.18,8.14-5.12,11.79-5s6.74,2.41,6.2,7.06A5.31,5.31,0,0,1,383,328l-.39-.31c.54-4-.31-9.77-3.26-9.85-3.87-.15-7.29,6.44-10.23,14.2a34.1,34.1,0,0,0-2.25,10.86c0,4.18,2.09,5.74,5,5.74,5.12,0,8.92-4.58,10.86-10.79l.46-.07C381.76,347.21,376.79,352.79,369.12,352.79Z"/><path d="M416.19,337c-2.94,8.69-10.24,16-17.91,15.9-7.45-.15-10.47-6.28-10.47-12.56a26.51,26.51,0,0,1,1.86-9.47c3.18-8.37,9.85-14.5,18-14.5,7.52,0,10,5.9,10,12.18A26.22,26.22,0,0,1,416.19,337Zm-7.06-1.39a46.17,46.17,0,0,0,2.64-13.19c0-2.71-.62-5.27-3.57-5.27C402.7,317,399,326,397,331.62A46.33,46.33,0,0,0,394,346c0,2.95.7,5.66,3.72,6.13C403.32,353,407.43,341.08,409.13,335.58Z"/><path d="M448.46,343.87l.31.24c5.58-10.63,16.83-27.69,23.11-27.69,2.17,0,4.65,2.87,4.81,4.57.08,2.49-5,13.81-6.75,19a53.69,53.69,0,0,0-2.25,8c7.68.15,8.92-6.67,8.84-10.86l.55-.08c.85,8.3-2.56,15.67-12.26,15.59-4.88,0-5.66-1.78-2.95-8.69,2.56-6.59,5.36-12.87,7.68-20.4.55-1.62,0-1.86-.46-2.09-1.17,0-2.95,1.47-4,2.48-6.44,6.05-14.19,16.68-19.62,28.93l-1.86-.31c-1.09-.23-3.11-2.48-1.17-8.22,2.1-6,5.36-13.65,7.6-20.79.47-1.62-.07-1.78-.54-2.09-1.16,0-3,1.47-4,2.48-6.44,6.05-14.43,17.3-19.55,29l-1.86-.31C423,352.25,421,350,423,344.26c3.25-9.3,6.82-19.23,7.6-23.27-5.35-.07-8.3,6.13-8.3,10.94l-.62.23c-.31-9.46,3.95-15.74,12.1-15.74a23.06,23.06,0,0,1,5.27.77l-10,26.68.31.24c5.58-10.63,16.9-27.69,22.88-27.69,2.25,0,4.73,2.79,4.81,4.5C457.22,323.55,450.32,338.52,448.46,343.87Z"/><path d="M511.74,323.86c-.08,2.25-1.24,4.11-5,6.05a51,51,0,0,1-15.2,4.74,29,29,0,0,0-1.48,7.52c-.08,3.88,1.09,6.44,4.58,6.44,5.35,0,8.92-4.66,10.62-10.71l.55-.08c-1.4,9.55-6.13,15.05-14.2,15.05-5.35,0-8.68-2.25-8.76-7.68a32,32,0,0,1,1.86-10c-.93-.08-2.25-.16-3-.31l.23-.47a14.54,14.54,0,0,0,3.26-.39,32.48,32.48,0,0,1,8.45-12.48c3.65-3.1,8.22-5.28,11.87-5.28C508.72,316.26,511.74,320.68,511.74,323.86Zm-6.05.86c-.08-3.26-1.47-6.83-3.41-6.83-3.88,0-8.3,8.61-10.39,15.59a31.38,31.38,0,0,0,8.92-3.1C504,328.67,505.69,326.73,505.69,324.72Z"/><path d="M512.83,348.14a4.6,4.6,0,0,1,4.65-4.58,4.62,4.62,0,0,1,0,9.23A4.56,4.56,0,0,1,512.83,348.14Zm10.7-29.94c1.24-6.13,2.87-13.57,3.41-15.43,1.32-4.11,3-5.74,6-5.74s3.8,2.56,2.56,6.13c-.7,2.25-3.64,8.84-6.51,15.2-3.34,7.21-8.85,20-9.16,20.71h-.69C519.42,338.06,522.13,325.49,523.53,318.2Z"/><path d="M536.09,348.14a4.61,4.61,0,0,1,4.66-4.58,4.62,4.62,0,0,1,0,9.23A4.57,4.57,0,0,1,536.09,348.14ZM546.8,318.2c1.24-6.13,2.87-13.57,3.41-15.43,1.32-4.11,3-5.74,6-5.74s3.8,2.56,2.56,6.13c-.7,2.25-3.65,8.84-6.52,15.2-3.33,7.21-8.84,20-9.15,20.71h-.7C542.68,338.06,545.4,325.49,546.8,318.2Z"/></g></g></svg>