<svg xmlns="http://www.w3.org/2000/svg" viewBox="0 0 436.01 166.1"><defs><style>.cls-1{fill:#b7b7b7;}.cls-1,.cls-2{stroke:#000;stroke-miterlimit:10;stroke-width:2px;}.cls-2{fill:none;}.cls-3{font-size:25.31px;font-family:MenoBanner-Bold, Meno Banner;font-weight:700;}.cls-4{font-size:77.56px;font-family:MenoBanner-SemiBoldItalic, Meno Banner;font-weight:600;font-style:italic;}.cls-5{letter-spacing:-0.16em;}.cls-6{letter-spacing:0em;}.cls-7{letter-spacing:-0.01em;}</style></defs><g id="圖層_2" data-name="圖層 2"><g id="圖層_1-2" data-name="圖層 1"><rect class="cls-1" x="1" y="1" width="389.37" height="164.1"/><line class="cls-2" x1="1" y1="33.06" x2="390.37" y2="33.06"/><text class="cls-3" transform="translate(363.82 27.51)">!</text><text class="cls-4" transform="translate(37.77 117.94)"><tspan class="cls-5">W</tspan><tspan class="cls-6" x="67.01" y="0">el</tspan><tspan class="cls-7" x="119.44" y="0">c</tspan><tspan class="cls-6" x="147.59" y="0">om</tspan><tspan class="cls-7" x="241.28" y="0">e</tspan><tspan x="271.13" y="0">!!</tspan></text><rect class="cls-1" x="8.44" y="1" width="389.37" height="164.1"/><line class="cls-2" x1="8.44" y1="33.06" x2="397.81" y2="33.06"/><text class="cls-3" transform="translate(371.26 27.51)">!</text><text class="cls-4" transform="translate(45.21 117.94)"><tspan class="cls-5">W</tspan><tspan class="cls-6" x="67.01" y="0">el</tspan><tspan class="cls-7" x="119.44" y="0">c</tspan><tspan class="cls-6" x="147.59" y="0">om</tspan><tspan class="cls-7" x="241.28" y="0">e</tspan><tspan x="271.13" y="0">!!</tspan></text><rect class="cls-1" x="15.88" y="1" width="389.37" height="164.1"/><line class="cls-2" x1="15.88" y1="33.06" x2="405.25" y2="33.06"/><text class="cls-3" transform="translate(378.7 27.51)">!</text><text class="cls-4" transform="translate(52.65 117.94)"><tspan class="cls-5">W</tspan><tspan class="cls-6" x="67.01" y="0">el</tspan><tspan class="cls-7" x="119.44" y="0">c</tspan><tspan class="cls-6" x="147.59" y="0">om</tspan><tspan class="cls-7" x="241.28" y="0">e</tspan><tspan x="271.13" y="0">!!</tspan></text><rect class="cls-1" x="23.32" y="1" width="389.37" height="164.1"/><line class="cls-2" x1="23.32" y1="33.06" x2="412.69" y2="33.06"/><text class="cls-3" transform="translate(386.14 27.51)">!</text><text class="cls-4" transform="translate(60.09 117.94)"><tspan class="cls-5">W</tspan><tspan class="cls-6" x="67.01" y="0">el</tspan><tspan class="cls-7" x="119.44" y="0">c</tspan><tspan class="cls-6" x="147.59" y="0">om</tspan><tspan class="cls-7" x="241.28" y="0">e</tspan><tspan x="271.13" y="0">!!</tspan></text><rect class="cls-1" x="30.76" y="1" width="389.37" height="164.1"/><line class="cls-2" x1="30.76" y1="33.06" x2="420.13" y2="33.06"/><text class="cls-3" transform="translate(393.58 27.51)">!</text><text class="cls-4" transform="translate(67.53 117.94)"><tspan class="cls-5">W</tspan><tspan class="cls-6" x="67.01" y="0">el</tspan><tspan class="cls-7" x="119.44" y="0">c</tspan><tspan class="cls-6" x="147.59" y="0">om</tspan><tspan class="cls-7" x="241.28" y="0">e</tspan><tspan x="271.13" y="0">!!</tspan></text><rect class="cls-1" x="38.2" y="1" width="389.37" height="164.1"/><line class="cls-2" x1="38.2" y1="33.06" x2="427.57" y2="33.06"/><text class="cls-3" transform="translate(401.02 27.51)">!</text><text class="cls-4" transform="translate(74.97 117.94)"><tspan class="cls-5">W</tspan><tspan class="cls-6" x="67.01" y="0">el</tspan><tspan class="cls-7" x="119.44" y="0">c</tspan><tspan class="cls-6" x="147.59" y="0">om</tspan><tspan class="cls-7" x="241.28" y="0">e</tspan><tspan x="271.13" y="0">!!</tspan></text><rect class="cls-1" x="45.64" y="1" width="389.37" height="164.1"/><line class="cls-2" x1="45.64" y1="33.06" x2="435.01" y2="33.06"/><text class="cls-3" transform="translate(408.46 27.51)">!</text><text class="cls-4" transform="translate(82.41 117.94)"><tspan class="cls-5">W</tspan><tspan class="cls-6" x="67.01" y="0">el</tspan><tspan class="cls-7" x="119.44" y="0">c</tspan><tspan class="cls-6" x="147.59" y="0">om</tspan><tspan class="cls-7" x="241.28" y="0">e</tspan><tspan x="271.13" y="0">!!</tspan></text></g></g></svg>