<svg xmlns="http://www.w3.org/2000/svg" viewBox="0 0 436.01 166.1"><defs><style>.cls-1{fill:#b7b7b7;}.cls-1,.cls-2{stroke:#000;stroke-miterlimit:10;stroke-width:2px;}.cls-2{fill:none;}</style></defs><g id="圖層_2" data-name="圖層 2"><g id="圖層_1-2" data-name="圖層 1"><rect class="cls-1" x="1" y="1" width="389.37" height="164.1"/><line class="cls-2" x1="1" y1="33.06" x2="390.37" y2="33.06"/><rect class="cls-1" x="8.44" y="1" width="389.37" height="164.1"/><line class="cls-2" x1="8.44" y1="33.06" x2="397.81" y2="33.06"/><rect class="cls-1" x="15.88" y="1" width="389.37" height="164.1"/><line class="cls-2" x1="15.88" y1="33.06" x2="405.25" y2="33.06"/><rect class="cls-1" x="23.32" y="1" width="389.37" height="164.1"/><line class="cls-2" x1="23.32" y1="33.06" x2="412.69" y2="33.06"/><rect class="cls-1" x="30.76" y="1" width="389.37" height="164.1"/><line class="cls-2" x1="30.76" y1="33.06" x2="420.13" y2="33.06"/><rect class="cls-1" x="38.2" y="1" width="389.37" height="164.1"/><line class="cls-2" x1="38.2" y1="33.06" x2="427.57" y2="33.06"/><rect class="cls-1" x="45.64" y="1" width="389.37" height="164.1"/><line class="cls-2" x1="45.64" y1="33.06" x2="435.01" y2="33.06"/><path d="M410.94,26.07a1.78,1.78,0,0,1,1.8-1.8,1.8,1.8,0,0,1,0,3.6A1.76,1.76,0,0,1,410.94,26.07Zm.69-9.6c-.28-2-.56-4.17-.56-4.78,0-1.37.63-2.15,1.7-2.15s1.64.71,1.64,2.07c0,.69-.25,2.86-.56,4.91-.38,2.59-1,6.51-1,6.51h-.33S412,19.11,411.63,16.47Z"/><path d="M97.45,75.13c-.23-7.53-1.24-10.08-8.76-10.71l.15-.46c3.26.08,7.84.23,12.18.23,5.12,0,7.84-.08,11.64-.23l-.08.46c-5.51.39-7.45,3.42-7.53,8.85-.23,12.25.16,25.59.39,33.5,5.59-8,12-17.14,18.31-26.52-.47-13.34-.31-15.2-5.51-15.83l.08-.46c3,.15,4.88.23,9.15.23,5.12,0,6.82-.08,11.09-.23l-.08.46c-6.2.39-7.44,3.11-7.44,7.84,0,12,.39,27.14.85,35.13,5.59-7.6,14.81-20.63,22.73-32.73,4.26-6.59,2.56-9.85-4.81-10.24l.07-.46c4.35.15,5.74.23,10.17.23s6.9-.08,10.54-.23l-.07.46c-4.74.63-7.76,2.41-12.57,8.77-11.4,15.36-24.74,34.05-32.42,45.14l-1,.39c.31-9.08-.31-24.75-.62-36.46-7.44,10.47-17.6,24.9-25,36.07l-.93.39C98.23,108.32,97.92,89.86,97.45,75.13Z"/><path d="M178.11,89.86c-.07,2.25-1.24,4.11-5,6a51,51,0,0,1-15.2,4.74,29,29,0,0,0-1.48,7.52c-.07,3.88,1.09,6.44,4.58,6.44,5.35,0,8.92-4.66,10.63-10.71l.54-.08c-1.4,9.54-6.13,15.05-14.19,15.05-5.36,0-8.69-2.25-8.77-7.68a32.26,32.26,0,0,1,1.86-10c-.93-.08-2.25-.16-3-.31l.23-.47a14.54,14.54,0,0,0,3.26-.39A32.48,32.48,0,0,1,160,87.54c3.65-3.1,8.22-5.28,11.87-5.28C175.09,82.26,178.11,86.68,178.11,89.86Zm-6.05.86c-.07-3.26-1.47-6.83-3.41-6.83-3.88,0-8.3,8.61-10.39,15.59a31.38,31.38,0,0,0,8.92-3.1C170.36,94.67,172.06,92.73,172.06,90.72Z"/><path d="M180.21,110c3.56-9.77,11.86-34.13,14.34-44.75-2.4-.23-5.5,1.08-7.05,1.94l-.24-.39c1.24-1.4,5.51-5.82,11.79-5.82,1.55,0,4.42.08,2.87,4.42-5.81,16.45-14.81,42.2-15.82,48.56,7.91.07,8.92-6.52,9.07-10.79l.47-.15c1,8.22-2.71,15.67-12.1,15.67C178.19,118.72,178,116,180.21,110Z"/><path d="M209.75,118.79c-5.58,0-9.07-2.48-9.23-7.83S203.63,93.74,211,87.38c3.72-3.18,8.14-5.12,11.78-5s6.75,2.41,6.21,7.06A5.31,5.31,0,0,1,223.64,94l-.39-.31c.54-4-.31-9.77-3.26-9.85-3.88-.15-7.29,6.44-10.24,14.2a34.38,34.38,0,0,0-2.25,10.86c0,4.18,2.1,5.74,5.05,5.74,5.12,0,8.92-4.58,10.85-10.79l.47-.07C222.4,113.21,217.43,118.79,209.75,118.79Z"/><path d="M256.83,103c-2.95,8.69-10.24,16-17.92,15.9-7.44-.15-10.47-6.28-10.47-12.56a26.54,26.54,0,0,1,1.87-9.47c3.18-8.37,9.85-14.5,18-14.5,7.52,0,10,5.9,10,12.18A26.21,26.21,0,0,1,256.83,103Zm-7.06-1.39a46.24,46.24,0,0,0,2.64-13.19c0-2.71-.62-5.27-3.57-5.27-5.5-.16-9.23,8.92-11.24,14.5A46.33,46.33,0,0,0,234.65,112c0,3,.7,5.66,3.72,6.13C244,119,248.07,107.08,249.77,101.58Z"/><path d="M289.09,109.87l.32.24c5.58-10.63,16.83-27.69,23.11-27.69,2.17,0,4.65,2.87,4.81,4.57.07,2.49-5,13.81-6.75,19a53.69,53.69,0,0,0-2.25,8c7.68.15,8.92-6.67,8.84-10.86l.54-.08c.86,8.3-2.55,15.67-12.25,15.59-4.89,0-5.66-1.78-2.95-8.69,2.56-6.59,5.35-12.87,7.68-20.4.54-1.63,0-1.86-.46-2.09-1.17,0-3,1.47-4,2.48-6.44,6-14.19,16.68-19.62,28.93l-1.86-.31c-1.09-.23-3.11-2.48-1.17-8.22,2.1-6,5.35-13.65,7.6-20.79.47-1.63-.07-1.78-.54-2.09-1.16,0-2.95,1.47-3.95,2.48-6.44,6-14.43,17.3-19.55,29l-1.86-.31c-1.16-.39-3.18-2.64-1.16-8.38,3.25-9.3,6.82-19.23,7.6-23.27-5.36-.07-8.3,6.13-8.3,10.94l-.62.23c-.31-9.46,4-15.74,12.1-15.74a23.06,23.06,0,0,1,5.27.77l-10,26.68.32.24c5.58-10.63,16.9-27.69,22.88-27.69,2.24,0,4.73,2.79,4.8,4.5C297.86,89.55,291,104.52,289.09,109.87Z"/><path d="M352.38,89.86c-.08,2.25-1.24,4.11-5,6a50.94,50.94,0,0,1-15.21,4.74,29.35,29.35,0,0,0-1.47,7.52c-.08,3.88,1.09,6.44,4.58,6.44,5.35,0,8.92-4.66,10.62-10.71l.55-.08c-1.4,9.54-6.13,15.05-14.2,15.05-5.35,0-8.68-2.25-8.76-7.68a32,32,0,0,1,1.86-10c-.93-.08-2.25-.16-3-.31l.24-.47a14.46,14.46,0,0,0,3.25-.39,32.62,32.62,0,0,1,8.46-12.48c3.64-3.1,8.22-5.28,11.87-5.28C349.36,82.26,352.38,86.68,352.38,89.86Zm-6.05.86c-.08-3.26-1.47-6.83-3.41-6.83-3.88,0-8.3,8.61-10.4,15.59a31.17,31.17,0,0,0,8.92-3.1C344.62,94.67,346.33,92.73,346.33,90.72Z"/><path d="M353.46,114.14a4.61,4.61,0,0,1,4.66-4.58,4.62,4.62,0,0,1,0,9.23A4.57,4.57,0,0,1,353.46,114.14ZM364.17,84.2c1.24-6.13,2.87-13.57,3.41-15.43,1.32-4.11,3-5.74,6.05-5.74s3.8,2.56,2.56,6.13c-.7,2.24-3.65,8.84-6.52,15.2-3.33,7.21-8.84,20-9.15,20.71h-.7C360.06,104.06,362.77,91.49,364.17,84.2Z"/><path d="M376.73,114.14a4.6,4.6,0,0,1,4.65-4.58,4.62,4.62,0,0,1,0,9.23A4.56,4.56,0,0,1,376.73,114.14Zm10.7-29.94c1.24-6.13,2.87-13.57,3.42-15.43,1.32-4.11,3-5.74,6-5.74s3.8,2.56,2.56,6.13c-.7,2.24-3.65,8.84-6.52,15.2-3.33,7.21-8.84,20-9.15,20.71h-.7C383.32,104.06,386,91.49,387.43,84.2Z"/></g></g></svg>